<svg width="66" height="49" viewBox="0 0 66 49" fill="none" xmlns="http://www.w3.org/2000/svg">
<path d="M64.35 33.6875H62.7V23.342C62.7 22.1266 62.1741 20.959 61.2459 20.0977L50.9437 10.5369C50.0156 9.67559 48.7575 9.1875 47.4478 9.1875H42.9V4.59375C42.9 2.05762 40.6828 0 37.95 0H4.95C2.21719 0 0 2.05762 0 4.59375V35.2188C0 37.7549 2.21719 39.8125 4.95 39.8125H6.6C6.6 44.8848 11.0344 49 16.5 49C21.9656 49 26.4 44.8848 26.4 39.8125H39.6C39.6 44.8848 44.0344 49 49.5 49C54.9656 49 59.4 44.8848 59.4 39.8125H64.35C65.2575 39.8125 66 39.1234 66 38.2812V35.2188C66 34.3766 65.2575 33.6875 64.35 33.6875ZM16.5 44.4062C13.7672 44.4062 11.55 42.3486 11.55 39.8125C11.55 37.2764 13.7672 35.2188 16.5 35.2188C19.2328 35.2188 21.45 37.2764 21.45 39.8125C21.45 42.3486 19.2328 44.4062 16.5 44.4062ZM49.5 44.4062C46.7672 44.4062 44.55 42.3486 44.55 39.8125C44.55 37.2764 46.7672 35.2188 49.5 35.2188C52.2328 35.2188 54.45 37.2764 54.45 39.8125C54.45 42.3486 52.2328 44.4062 49.5 44.4062ZM57.75 24.5H42.9V13.7812H47.4478L57.75 23.342V24.5Z" fill="black"/>
</svg>
