<svg width="61" height="52" viewBox="0 0 61 52" fill="none" xmlns="http://www.w3.org/2000/svg">
<path d="M18.3037 40.8571H36.6021C41.6533 40.8571 45.7513 35.8661 45.7513 29.7143H48.8011C55.5295 29.7143 61 23.0518 61 14.8571C61 6.6625 55.5295 0 48.8011 0H11.4418C10.1743 0 9.15453 1.24196 9.15453 2.78571V29.7143C9.15453 35.8661 13.2526 40.8571 18.3037 40.8571ZM48.8011 7.42857C52.1653 7.42857 54.9005 10.7598 54.9005 14.8571C54.9005 18.9545 52.1653 22.2857 48.8011 22.2857H45.7513V7.42857H48.8011ZM53.3471 52H4.60852C0.072042 52 -1.20503 44.5714 1.17757 44.5714H56.7685C59.1511 44.5714 57.8931 52 53.3471 52Z" fill="black"/>
</svg>
